HIERARCHY
ROOT Hips
{
  OFFSET 0.000000 0.000000 0.000000
  CHANNELS 6 Xposition Yposition Zposition Xrotation Yrotation Zrotation
  JOINT Spine
  {
    OFFSET 0.377155 22.431597 -3.484962
    CHANNELS 3 Xrotation Yrotation Zrotation
    JOINT Chest
    {
      OFFSET 0.377155 22.431597 -3.484962
      CHANNELS 3 Xrotation Yrotation Zrotation
      JOINT Neck
      {
        OFFSET 0.088870 8.284610 -4.317105
        CHANNELS 3 Xrotation Yrotation Zrotation
        JOINT Head
        {
          OFFSET 1.127721 7.011547 -8.309438
          CHANNELS 3 Xrotation Yrotation Zrotation
          End Site
          {
            OFFSET 0.338316 2.103464 -2.492831
          }
        }
      }
      JOINT LeftShoulder
      {
        OFFSET 16.394990 -0.592048 1.929974
        CHANNELS 3 Xrotation Yrotation Zrotation
        JOINT LeftArm
        {
          OFFSET 3.008246 -21.809778 -11.106493
          CHANNELS 3 Xrotation Yrotation Zrotation
          JOINT LeftForeArm
          {
            OFFSET -8.932164 6.293255 -23.332103
            CHANNELS 3 Xrotation Yrotation Zrotation
            JOINT LeftHand
            {
              OFFSET -2.602157 1.901300 -2.796597
              CHANNELS 3 Xrotation Yrotation Zrotation
              End Site
              {
                OFFSET -0.780647 0.570390 -0.838979
              }
            }
          }
        }
      }
      JOINT RightShoulder
      {
        OFFSET -16.394990 0.592048 -1.929974
        CHANNELS 3 Xrotation Yrotation Zrotation
        JOINT RightArm
        {
          OFFSET -5.622256 -21.790075 -9.561533
          CHANNELS 3 Xrotation Yrotation Zrotation
          JOINT RightForeArm
          {
            OFFSET 14.207961 4.269886 -20.578508
            CHANNELS 3 Xrotation Yrotation Zrotation
            JOINT RightHand
            {
              OFFSET 3.836391 1.601913 -2.407667
              CHANNELS 3 Xrotation Yrotation Zrotation
              End Site
              {
                OFFSET 1.150917 0.480574 -0.722300
              }
            }
          }
        }
      }
    }
  }
  JOINT LeftUpLeg
  {
    OFFSET 11.619440 -0.280544 0.681345
    CHANNELS 3 Xrotation Yrotation Zrotation
    JOINT LeftLeg
    {
      OFFSET 10.382547 -38.747626 -12.427199
      CHANNELS 3 Xrotation Yrotation Zrotation
      JOINT LeftFoot
      {
        OFFSET 16.828658 -37.208288 8.397387
        CHANNELS 3 Xrotation Yrotation Zrotation
        End Site
        {
          OFFSET 5.048597 -11.162486 2.519216
        }
      }
    }
  }
  JOINT RightUpLeg
  {
    OFFSET -11.619440 0.280544 -0.681345
    CHANNELS 3 Xrotation Yrotation Zrotation
    JOINT RightLeg
    {
      OFFSET -11.480243 -35.113876 0.294658
      CHANNELS 3 Xrotation Yrotation Zrotation
      JOINT RightFoot
      {
        OFFSET -8.384327 -35.738078 15.333431
        CHANNELS 3 Xrotation Yrotation Zrotation
        End Site
        {
          OFFSET -2.515298 -10.721423 4.600029
        }
      }
    }
  }
}
MOTION
Frames: 7
Frame Time: 0.083333
0.000000 60.000000 0.000000 -1.433825 0.023813 -0.002228 0.000000 0.000000 0.000000 1.214753 -0.065670 -0.078794 0.086372 -0.001758 0.027693 5.000000 0.000000 0.000000 1.193164 0.307128 -0.174830 -0.719525 -0.406992 0.193684 -35.720803 32.221549 46.642183 0.000000 0.000000 0.000000 0.860067 -0.357339 0.623974 -0.515180 0.662384 -0.477027 5.573128 -26.011474 -65.764583 0.000000 0.000000 0.000000 -8.533154 -0.800189 -8.531190 11.171288 3.023790 8.368187 0.000000 0.000000 0.000000 1.707542 0.072497 11.286201 0.595756 -0.340909 -11.194171 0.000000 0.000000 0.000000
0.000048 60.000261 -0.049718 -1.443227 0.023961 -0.002287 0.000000 0.000000 0.000000 1.223308 -0.067151 -0.081252 0.085786 -0.002363 0.028421 5.000000 0.000000 0.000000 1.039437 0.273840 -0.134362 -0.501946 -0.357995 0.151229 -34.221270 32.313268 47.178504 0.000000 0.000000 0.000000 0.840948 -0.386564 0.669185 -0.129850 0.656153 -0.477037 4.852447 -26.369546 -64.761707 0.000000 0.000000 0.000000 -8.813132 -0.796442 -8.526842 11.028749 2.930772 8.360460 0.000000 0.000000 0.000000 1.451436 0.066932 11.283163 0.485050 -0.280532 -11.180213 0.000000 0.000000 0.000000
0.000115 60.000665 -0.171883 -1.442920 0.023955 -0.002295 0.000000 0.000000 0.000000 1.223088 -0.067186 -0.081325 0.085690 -0.002380 0.028452 5.000000 0.000000 0.000000 2.490845 0.673720 -0.237695 -0.678701 -0.879212 0.275500 -39.835324 31.119157 45.106214 0.000000 0.000000 0.000000 2.421860 -1.242032 2.116254 0.865242 1.894676 -1.414053 -14.932920 -24.272816 -59.104200 0.000000 0.000000 0.000000 -6.970275 -0.831347 -8.500213 12.505341 3.910600 8.478839 0.000000 0.000000 0.000000 2.918934 0.201265 11.392558 1.545045 -0.744562 -11.045573 0.000000 0.000000 0.000000
0.000082 60.000889 -0.272216 -3.249424 0.053591 -0.007128 0.000000 0.000000 0.000000 2.772158 -0.181943 -0.239306 0.163496 -0.022830 0.080356 5.000000 0.000000 0.000000 2.636827 0.733047 0.044030 0.971713 -0.986751 -0.041840 -49.526375 29.055256 42.244963 0.000000 0.000000 0.000000 3.847301 -2.295317 3.728599 4.079285 2.971443 -2.325469 -27.859889 -21.688328 -55.724784 0.000000 0.000000 0.000000 -7.464560 -0.851657 -8.371409 12.995213 4.199348 8.270124 0.000000 0.000000 0.000000 2.341221 0.249311 11.442915 1.844451 -0.759995 -10.761657 0.000000 0.000000 0.000000
-0.000116 60.001084 -0.294690 -2.750409 0.044062 -0.013680 0.000000 0.000000 0.000000 2.407506 -0.253857 -0.385683 0.027733 -0.071899 0.124825 5.000000 0.000000 0.000000 2.888264 0.681300 0.456608 2.943677 -1.052458 -0.610709 -58.605160 25.953001 39.779738 0.000000 0.000000 0.000000 5.393955 -3.417639 5.057213 5.685979 4.020817 -3.242876 -36.304459 -19.542838 -53.812740 0.000000 0.000000 0.000000 -8.855523 -0.910295 -8.131727 13.850051 4.633523 7.623199 0.000000 0.000000 0.000000 1.156952 0.218681 11.433541 2.402504 -0.851496 -10.418088 0.000000 0.000000 0.000000
-0.000488 60.001349 -0.189043 -1.450320 0.020466 -0.025459 0.000000 0.000000 0.000000 1.367032 -0.276448 -0.464088 -0.197803 -0.091055 0.166567 5.000000 0.000000 0.000000 3.870211 0.660406 0.892538 4.944737 -1.118315 -1.331904 -64.589567 23.181990 38.244524 0.000000 0.000000 0.000000 7.022464 -4.678534 6.245534 5.845914 5.311235 -4.220068 -39.329456 -18.657529 -53.028761 0.000000 0.000000 0.000000 -11.473757 -0.998122 -7.906723 14.950068 5.200368 6.996793 0.000000 0.000000 0.000000 -0.981021 0.152172 11.403586 3.008616 -0.980491 -10.145174 0.000000 0.000000 0.000000
-0.000951 60.001664 0.001485 0.920072 -0.021150 -0.038279 0.000000 0.000000 0.000000 -0.600148 -0.242384 -0.471650 -0.498211 -0.075053 0.209246 5.000000 0.000000 0.000000 4.895887 0.578507 1.388748 6.660294 -1.099511 -2.060497 -68.338949 21.366996 37.406168 0.000000 0.000000 0.000000 8.205985 -5.736075 7.432223 5.692121 6.402619 -5.303244 -38.944798 -18.664524 -52.816763 0.000000 0.000000 0.000000 -12.672944 -1.045078 -7.719546 15.385801 5.398293 6.504506 0.000000 0.000000 0.000000 -1.886085 0.059257 11.329731 2.860584 -0.785456 -9.952158 0.000000 0.000000 0.000000
